<svg width="18" height="18" viewBox="0 0 18 18" fill="none" xmlns="http://www.w3.org/2000/svg">
<path d="M12.375 18H5.625C2.51888 18 0 15.4811 0 12.375V5.625C0 2.51888 2.51888 0 5.625 0H12.375C15.4811 0 18 2.51888 18 5.625V12.375C18 15.4811 15.4811 18 12.375 18ZM16.3125 5.625C16.3125 3.45375 14.5463 1.6875 12.375 1.6875H5.625C3.45375 1.6875 1.6875 3.45375 1.6875 5.625V12.375C1.6875 14.5462 3.45375 16.3125 5.625 16.3125H12.375C14.5463 16.3125 16.3125 14.5462 16.3125 12.375V5.625Z" fill="black"/>
</svg>
